<?xml version="1.0" standalone="no"?>
<!DOCTYPE svg PUBLIC "-//W3C//DTD SVG 20010904//EN"
 "http://www.w3.org/TR/2001/REC-SVG-20010904/DTD/svg10.dtd">
<svg version="1.0" xmlns="http://www.w3.org/2000/svg"
 width="700.000000pt" height="700.000000pt" viewBox="0 0 700.000000 700.000000"
 preserveAspectRatio="xMidYMid meet">
<metadata>
Created by potrace 1.11, written by Peter Selinger 2001-2013
</metadata>
<g transform="translate(0.000000,700.000000) scale(0.100000,-0.100000)"
fill="#000000" stroke="none">
<path d="M0 5210 l0 -1790 899 0 900 0 56 -64 c229 -259 468 -623 630 -961
267 -553 407 -1131 431 -1772 l7 -183 -791 0 c-748 0 -792 1 -792 18 -1 81
-23 381 -36 477 -92 713 -384 1398 -829 1945 -79 98 -463 530 -471 530 -2 0
-4 -767 -4 -1705 l0 -1705 3500 0 3500 0 0 1790 0 1790 -900 0 -899 0 -98 123
c-173 215 -252 328 -376 535 -321 534 -528 1130 -606 1742 -19 148 -41 431
-41 533 l0 47 790 0 c746 0 790 -1 790 -17 0 -73 23 -370 35 -468 85 -661 367
-1337 769 -1845 75 -94 492 -598 517 -625 19 -19 19 18 19 1688 l0 1707 -3500
0 -3500 0 0 -1790z m3283 1170 c20 -534 118 -1009 309 -1493 56 -141 185 -410
263 -548 98 -172 278 -430 450 -644 470 -585 746 -1131 905 -1788 87 -360 117
-626 127 -1124 l6 -343 -790 0 -790 0 -6 268 c-3 147 -13 326 -21 397 -105
855 -424 1615 -953 2269 -206 255 -249 312 -358 476 -223 336 -388 675 -514
1057 -150 457 -221 929 -221 1476 l0 177 793 0 794 0 6 -180z"/>
</g>
</svg>
