<svg id="Layer_1" data-name="Layer 1" xmlns="http://www.w3.org/2000/svg" viewBox="0 0 170.08 170.08"><defs><style>.cls-1{fill:#231f20;}</style></defs><path class="cls-1" d="M170.08,110.6c-14.29,0-22.13-6.26-27.31-10.41-3.59-2.87-4.08-3.18-6.71-3.18s-3.11.31-6.71,3.18c-5.18,4.15-13,10.41-27.31,10.41s-22.12-6.26-27.31-10.41C71.14,97.32,70.66,97,68,97s-3.12.31-6.71,3.18c-5.18,4.15-13,10.41-27.31,10.41S11.89,104.34,6.7,100.19C3.11,97.32,2.63,97,0,97V64c14.29,0,22.12,6.26,27.31,10.41,3.59,2.87,4.07,3.18,6.7,3.18s3.12-.31,6.71-3.18C45.9,70.27,53.74,64,68,64s22.12,6.26,27.31,10.41c3.59,2.87,4.07,3.18,6.7,3.18s3.12-.31,6.71-3.19c5.18-4.14,13-10.4,27.31-10.4s22.13,6.26,27.31,10.4c3.59,2.88,4.08,3.19,6.71,3.19Z"/><path class="cls-1" d="M170.08,61.23c-14.29,0-22.13-6.26-27.31-10.41-3.59-2.87-4.08-3.18-6.71-3.18s-3.11.31-6.71,3.18c-5.18,4.15-13,10.41-27.31,10.41S79.92,55,74.73,50.82C71.14,48,70.66,47.64,68,47.64s-3.12.31-6.71,3.18C56.14,55,48.3,61.23,34,61.23S11.89,55,6.7,50.82C3.11,48,2.63,47.64,0,47.64v-33c14.29,0,22.12,6.26,27.31,10.41,3.59,2.87,4.07,3.18,6.7,3.18s3.12-.31,6.71-3.18C45.9,20.9,53.74,14.64,68,14.64S90.15,20.9,95.34,25.05c3.59,2.87,4.07,3.18,6.7,3.18s3.12-.31,6.71-3.18c5.18-4.15,13-10.41,27.31-10.41s22.13,6.26,27.31,10.41c3.59,2.87,4.08,3.18,6.71,3.18Z"/><path class="cls-1" d="M170.08,160c-14.29,0-22.13-6.27-27.31-10.41-3.59-2.87-4.08-3.19-6.71-3.19s-3.11.32-6.71,3.19C124.17,153.7,116.33,160,102,160s-22.12-6.27-27.31-10.41c-3.59-2.87-4.07-3.19-6.7-3.19s-3.12.32-6.71,3.19C56.14,153.7,48.3,160,34,160S11.89,153.7,6.7,149.56c-3.59-2.87-4.07-3.19-6.7-3.19v-33c14.29,0,22.12,6.27,27.31,10.41C30.9,126.65,31.38,127,34,127s3.12-.32,6.71-3.19c5.18-4.14,13-10.41,27.31-10.41s22.12,6.27,27.31,10.41c3.59,2.87,4.07,3.19,6.7,3.19s3.12-.32,6.71-3.19c5.18-4.14,13-10.41,27.31-10.41s22.13,6.27,27.31,10.41c3.59,2.87,4.08,3.19,6.71,3.19Z"/></svg>