<svg id="Layer_1" data-name="Layer 1" xmlns="http://www.w3.org/2000/svg" viewBox="0 0 978 182.08"><defs><style>.cls-1{fill:#fff;}</style></defs><path class="cls-1" d="M53.58,93.43H0l10.29,11.48a115.63,115.63,0,0,1,29.53,77.17H86.89v-1.81A129.82,129.82,0,0,0,53.58,93.43Z"/><path class="cls-1" d="M154.83,88.65h53.58L195.18,72.92A113.31,113.31,0,0,1,168.59,0H121.52a134.46,134.46,0,0,0,31.17,86.09Z"/><path class="cls-1" d="M50.44,8.75a130.14,130.14,0,0,0,30.76,84A130.24,130.24,0,0,1,112,176.84v5.24h46.88V169.47a130.18,130.18,0,0,0-30.77-84,130.22,130.22,0,0,1-30.76-84V0H50.44Z"/><path class="cls-1" d="M396.57,64.4c0-34.79-18.88-52.43-56.11-52.43H278.84V170.12h33.69V117.76h28.83l18.14,52.36h36.82l-22.49-60.3C388.92,100,396.57,84.73,396.57,64.4Zm-84-23.34h27.93c7,0,12.44,2.13,16.13,6.32s5.6,10,5.6,17.25-1.78,13.13-5.29,17.52-8.83,6.51-16,6.51H312.53Z"/><path class="cls-1" d="M535.64,29.7a47.16,47.16,0,0,0-20.4-15.48c-8.27-3.32-18.56-5-30.57-5s-22.3,1.69-30.57,5A47.16,47.16,0,0,0,433.7,29.7c-5.19,6.89-9,15.6-11.32,25.87s-3.47,22.37-3.47,36.16,1.17,25.92,3.47,36.05,6.13,18.72,11.33,25.31A47.54,47.54,0,0,0,454.11,168c8.26,3.25,18.55,4.89,30.56,4.89,13.4,0,24.48-2,32.92-6a49.15,49.15,0,0,0,20.15-16.76c4.88-7.12,8.25-15.78,10-25.76a187.89,187.89,0,0,0,2.66-32.67c0-13.78-1.17-25.95-3.47-36.16S540.84,36.6,535.64,29.7ZM509.19,131.75a21.9,21.9,0,0,1-9.45,8.79c-3.89,1.84-9,2.78-15.07,2.78-11.95,0-20.15-3.92-24.38-11.65v0c-4.48-7.92-6.76-21.35-6.76-39.92a157.11,157.11,0,0,1,1.6-24.18,50.36,50.36,0,0,1,5.17-16.44,22,22,0,0,1,9.44-9.35c4-2,9-3,14.94-3s11,1,14.94,3a22,22,0,0,1,9.44,9.35,50.36,50.36,0,0,1,5.17,16.44,157.47,157.47,0,0,1,1.6,24.18,167.62,167.62,0,0,1-1.48,24.08C513.36,122.31,511.63,127.67,509.19,131.75Z"/><path class="cls-1" d="M602.36,12,566.78,170.12h33.74l6.2-28.25h53l6.2,28.25h33.75L664.12,12Zm51,100.35H613.12l15.42-72.18H638Z"/><path class="cls-1" d="M831.4,30.84c-4.92-6.32-11.87-11.11-20.66-14.22S790.51,12,776.53,12H723V170.12h53.58c14.46,0,26.25-1.84,35.06-5.47s15.77-9.07,20.54-16.1,7.91-15.65,9.46-25.78a230.2,230.2,0,0,0,2.31-34.25,197.21,197.21,0,0,0-2.54-33.71C839.65,45.2,836.3,37.13,831.4,30.84ZM776.53,140.56H756.64v-99h19.89c7.65,0,13.72.79,18,2.35a17.26,17.26,0,0,1,9.56,8.38A38.69,38.69,0,0,1,808.38,66a185.73,185.73,0,0,1,.91,20.66c0,4.34,0,8.27-.12,11.69s-.19,6.26-.34,8.67c-1.05,12.12-3.93,20.84-8.58,25.93S787.67,140.56,776.53,140.56Z"/><path class="cls-1" d="M975.77,105.21a32.36,32.36,0,0,0-7.22-12.44,45.16,45.16,0,0,0-12.92-9.28,139.21,139.21,0,0,0-19.44-7.64c-7.75-2.43-14.06-4.62-18.75-6.52a91.38,91.38,0,0,1-10.17-4.62,11.5,11.5,0,0,1-5.74-10.41c0-10.45,7.86-15.53,24-15.53,4.37,0,10.4.31,18,.91s16.82,1.54,27.64,2.75l1,.12,2.72-26.95-9.18-1.78c-8.71-1.53-16.77-2.69-24-3.46a188.15,188.15,0,0,0-19.39-1.15c-16.85,0-30.23,3.9-39.78,11.59s-14.5,19.79-14.5,35.8a49.55,49.55,0,0,0,2.59,16.63,34.33,34.33,0,0,0,8.5,13.13,53.65,53.65,0,0,0,15.33,10.07,171.57,171.57,0,0,0,22.75,8.2c10.87,3.17,18.34,6.14,22.19,8.8a12.48,12.48,0,0,1,5.11,10.68c0,12.92-7.63,19.21-23.34,19.21-10.77,0-26.57-1.39-46.94-4.13l-1-.13-3.46,26.5,9.17,1.78c17.28,3.67,32.11,5.53,44.07,5.53a72.23,72.23,0,0,0,22.35-3.26A49.5,49.5,0,0,0,962.73,160,42.75,42.75,0,0,0,974,144.13,57.07,57.07,0,0,0,978,122,56.3,56.3,0,0,0,975.77,105.21Z"/></svg>